#!OML:ASF I:\Actors\actors\Patient Classification 2\Patient 1\Session 1\actor1.ASF
:FULLY-SPECIFIED
:DEGREES
621
root -1.0039 18.0751 4.27998 3.97338 -1.42885 -2.02521
lowerback 22.2542 0.752296 1.29633
upperback 9.87103 1.28142 1.84986
thorax -1.66824 0.620971 0.944773
lowerneck -22.8985 -0.0669466 -0.582075
upperneck 2.70634 0.0889471 -0.178994
head 4.38036 0.0225836 0.0440374
rclavicle 3.37934e-015 5.1684e-015
rhumerus 29.9002 18.5164 -54.1295
rradius 57.3597
rwrist 4.12236
rhand -12.2278 -30.1732
rfingers 7.12502
rthumb 13.8375 -59.6929
lclavicle 3.37934e-015 5.1684e-015
lhumerus 39.148 -22.842 61.7521
lradius 50.4167
lwrist 6.82802
lhand -13.873 -18.0891
lfingers 7.12502
lthumb 12.2516 11.532
rfemur 11.7879 -4.00842 17.6736
rtibia -26.1849
rfoot 0.899366 -22.2932
rtoes 1.99881
lfemur 11.6222 -0.0928108 -13.3194
ltibia -28.4941
lfoot 13.24 12.9468
ltoes -12.2989
622
root -0.995242 18.0838 4.28573 3.82533 -1.47686 -2.02709
lowerback 22.4437 0.793336 1.03312
upperback 9.76702 1.28846 1.84768
thorax -1.88146 0.616283 1.08721
lowerneck -23.2272 0.00794419 -0.639516
upperneck 2.70821 0.215038 -0.266606
head 4.4279 0.0774014 0.0379239
rclavicle -1.0138e-014 -1.11319e-014
rhumerus 31.6132 17.6388 -55.5983
rradius 54.607
rwrist 2.61555
rhand -14.0322 -30.368
rfingers 7.12502
rthumb 12.098 -59.9983
lclavicle -1.0138e-014 -1.11319e-014
lhumerus 40.047 -21.1136 64.4193
lradius 47.9595
lwrist 5.7829
lhand -12.937 -17.6396
lfingers 7.12502
lthumb 13.1539 11.9255
rfemur 11.8123 -3.94766 17.6265
rtibia -25.8726
rfoot 0.744305 -22.2302
rtoes 1.93424
lfemur 11.6727 -0.157389 -13.3593
ltibia -28.2099
lfoot 13.0857 12.998
ltoes -12.4356
623
root -0.986593 18.0923 4.29765 3.63462 -1.5252 -2.02261
lowerback 22.589 0.836292 0.898845
upperback 9.62144 1.32081 1.8004
thorax -2.11433 0.629317 1.10228
lowerneck -23.5035 0.0334407 -0.665427
upperneck 2.70873 0.25794 -0.259223
head 4.4674 0.0985153 0.0487837
rclavicle -4.37326e-015 3.57812e-015
rhumerus 33.0746 16.828 -56.808
rradius 52.0845
rwrist 1.88913
rhand -14.6727 -30.5554
rfingers 7.12502
rthumb 11.4804 -60.221
lclavicle -4.37326e-015 3.57812e-015
lhumerus 40.7383 -19.4732 67.2939
lradius 45.734
lwrist 4.33209
lhand -11.9414 -17.0837
lfingers 7.12502
lthumb 14.1135 12.417
rfemur 11.9054 -3.9733 17.5733
rtibia -25.5551
rfoot 0.604805 -22.0705
rtoes 1.89879
lfemur 11.8081 -0.302269 -13.4008
ltibia -27.9385
lfoot 12.8705 13.1153
ltoes -12.2532
624
root -0.978725 18.1004 4.31271 3.47511 -1.56835 -2.05741
lowerback 22.6995 0.886107 0.896434
upperback 9.40652 1.38944 1.76182
thorax -2.4031 0.663568 1.04242
lowerneck -23.8001 0.0457659 -0.604296
upperneck 2.75249 0.266148 -0.327182
head 4.52374 0.0981079 0.0184167
rclavicle -2.78299e-015 -2.78299e-015
rhumerus 34.3587 15.7675 -58.1194
rradius 49.6157
rwrist 2.68347
rhand -13.8133 -30.4515
rfingers 7.12502
rthumb 12.3091 -60.0691
lclavicle -2.78299e-015 -2.78299e-015
lhumerus 41.3475 -17.9937 70.2159
lradius 43.5766
lwrist 2.80306
lhand -11.1428 -16.2647
lfingers 7.12502
lthumb 14.8829 13.1807
rfemur 11.9735 -3.92457 17.5725
rtibia -25.2398
rfoot 0.407669 -21.981
rtoes 1.75791
lfemur 11.9336 -0.450274 -13.3911
ltibia -27.6815
lfoot 12.5853 13.2681
ltoes -11.8604
625
root -0.973762 18.1059 4.32681 3.31895 -1.6149 -2.08866
lowerback 22.7579 0.935426 0.849805
upperback 9.17312 1.44854 1.73843
thorax -2.68743 0.691801 1.02638
lowerneck -24.0154 0.116757 -0.406173
upperneck 2.69214 0.323103 -0.524616
head 4.53578 0.11448 -0.0699417
rclavicle -6.95746e-015 -1.19271e-015
rhumerus 35.6077 14.8362 -59.265
rradius 47.2916
rwrist 3.25246
rhand -12.6918 -30.2939
rfingers 7.12502
rthumb 13.3902 -59.8436
lclavicle -6.95746e-015 -1.19271e-015
lhumerus 41.9873 -16.5885 72.9016
lradius 41.4303
lwrist 1.6413
lhand -10.3529 -15.2928
lfingers 7.12502
lthumb 15.6438 14.0947
rfemur 12.0311 -3.80306 17.5825
rtibia -24.9282
rfoot 0.135041 -21.9745
rtoes 1.81689
lfemur 12.0518 -0.546662 -13.3726
ltibia -27.4343
lfoot 12.3183 13.3736
ltoes -11.7121
626
root -0.970622 18.1106 4.34321 3.12068 -1.68891 -2.06438
lowerback 22.7657 1.00705 0.728609
upperback 8.94842 1.51987 1.71909
thorax -2.9394 0.724769 1.05461
lowerneck -24.5333 0.0700725 -0.745844
upperneck 2.9164 0.335835 -0.208378
head 4.67928 0.138067 0.0864312
rclavicle -1.98785e-015 -3.18055e-015
rhumerus 36.7135 13.9437 -60.2236
rradius 45.2749
rwrist 4.45044
rhand -9.23253 -31.2674
rfingers 7.12502
rthumb 16.7226 -60.5672
lclavicle -1.98785e-015 -3.18055e-015
lhumerus 42.5601 -15.2896 75.3806
lradius 39.468
lwrist 0.897717
lhand -9.47232 -14.3026
lfingers 7.12502
lthumb 16.4917 15.0165
rfemur 12.1541 -3.68703 17.5282
rtibia -24.633
rfoot -0.149206 -21.926
rtoes 2.07737
lfemur 12.2311 -0.573642 -13.4169
ltibia -27.195
lfoot 12.0709 13.4022
ltoes -11.6812
627
root -0.966909 18.1144 4.36301 2.84378 -1.72024 -2.00071
lowerback 22.7643 1.06854 0.646838
upperback 8.74597 1.58651 1.7123
thorax -3.16193 0.756446 1.07516
lowerneck -24.9166 0.102855 -0.697894
upperneck 2.99378 0.38412 -0.35906
head 4.75842 0.150337 0.0359679
rclavicle 0 -5.96354e-015
rhumerus 37.7261 13.5322 -60.6232
rradius 43.4958
rwrist 3.76388
rhand -8.24585 -31.6527
rfingers 7.12502
rthumb 17.6723 -60.8696
lclavicle 0 -5.96354e-015
lhumerus 43.0181 -14.0591 77.8632
lradius 37.8069
lwrist 0.284736
lhand -8.44859 -13.2612
lfingers 7.12502
lthumb 17.4772 15.9732
rfemur 12.3991 -3.61783 17.4176
rtibia -24.3627
rfoot -0.422326 -21.8283
rtoes 2.16777
lfemur 12.4916 -0.610679 -13.5146
ltibia -26.9521
lfoot 11.842 13.3655
ltoes -11.7681
628
root -0.962923 18.1152 4.38453 2.48692 -1.69432 -1.95139
lowerback 22.7211 1.08124 0.656447
upperback 8.59531 1.60681 1.68352
thorax -3.30345 0.767537 1.03266
lowerneck -25.3246 0.133618 -0.590942
upperneck 3.02389 0.413014 -0.524286
head 4.82595 0.152665 -0.0306757
rclavicle 1.78906e-014 1.59028e-014
rhumerus 38.7058 13.1015 -61.0952
rradius 41.7992
rwrist 3.05754
rhand -8.10637 -31.6577
rfingers 7.12502
rthumb 17.8065 -60.8624
lclavicle 1.78906e-014 1.59028e-014
lhumerus 43.4182 -12.8628 80.2393
lradius 36.3828
lwrist -0.278815
lhand -7.2022 -12.0848
lfingers 7.12502
lthumb 18.6763 17.0387
rfemur 12.751 -3.55697 17.319
rtibia -24.1009
rfoot -0.742197 -21.7548
rtoes 2.23504
lfemur 12.8323 -0.700134 -13.5957
ltibia -26.7
lfoot 11.5866 13.3357
ltoes -11.9094
629
root -0.960391 18.1148 4.40919 2.12783 -1.68559 -1.94548
lowerback 22.5611 1.09821 0.669248
upperback 8.46434 1.63198 1.6698
thorax -3.36564 0.780975 1.00522
lowerneck -25.8745 0.124472 -0.615465
upperneck 3.17068 0.411478 -0.497274
head 4.93448 0.152238 -0.0196018
rclavicle 4.57205e-015 4.37326e-015
rhumerus 39.5341 12.5156 -61.8403
rradius 40.2083
rwrist 2.8164
rhand -7.219 -31.6242
rfingers 7.12502
rthumb 18.6602 -60.7492
lclavicle 4.57205e-015 4.37326e-015
lhumerus 43.7709 -11.7493 82.4045
lradius 35.09
lwrist -0.711763
lhand -5.5946 -10.6516
lfingers 7.12502
lthumb 20.222 18.3158
rfemur 13.1165 -3.40762 17.2747
rtibia -23.8367
rfoot -1.15799 -21.7488
rtoes 2.61703
lfemur 13.2034 -0.790733 -13.6212
ltibia -26.447
lfoot 11.2494 13.344
ltoes -11.8516
630
root -0.960487 18.1139 4.43608 1.76494 -1.67672 -1.95699
lowerback 22.3439 1.12521 0.651091
upperback 8.30937 1.66484 1.68088
thorax -3.42661 0.797482 1.02077
lowerneck -26.4041 0.122322 -0.639086
upperneck 3.35312 0.418361 -0.462393
head 5.06696 0.156452 -0.0034561
rclavicle 9.93923e-016 -1.59028e-015
rhumerus 40.1539 11.9478 -62.6371
rradius 38.8385
rwrist 2.46104
rhand -5.81757 -31.9562
rfingers 7.12502
rthumb 20.0077 -60.9462
lclavicle 9.93923e-016 -1.59028e-015
lhumerus 44.0494 -10.7857 84.2173
lradius 33.991
lwrist -0.622628
lhand -3.88922 -8.82602
lfingers 7.12502
lthumb 21.8603 19.9592
rfemur 13.4948 -3.23525 17.2615
rtibia -23.5677
rfoot -1.60565 -21.7486
rtoes 2.92247
lfemur 13.5855 -0.873219 -13.6235
ltibia -26.2028
lfoot 10.9382 13.3102
ltoes -11.9048
631
root -0.960717 18.1124 4.46411 1.33872 -1.64659 -1.946
lowerback 22.1248 1.12802 0.643342
upperback 8.16167 1.6671 1.66277
thorax -3.47662 0.799616 1.00683
lowerneck -26.8507 0.13485 -0.687734
upperneck 3.46259 0.441741 -0.337393
head 5.1637 0.176448 0.0479871
rclavicle 9.93923e-015 3.97569e-016
rhumerus 40.6003 11.486 -63.3725
rradius 37.78
rwrist 1.9158
rhand -4.2228 -33.0351
rfingers 7.12502
rthumb 21.54 -61.8573
lclavicle 9.93923e-015 3.97569e-016
lhumerus 44.2199 -10.0601 85.459
lradius 33.2268
lwrist 0.542777
lhand -2.43795 -6.7939
lfingers 7.12502
lthumb 23.2533 21.8221
rfemur 13.9437 -3.19937 17.2182
rtibia -23.291
rfoot -1.95049 -21.6293
rtoes 2.66443
lfemur 14.0368 -0.986961 -13.6589
ltibia -25.9616
lfoot 10.658 13.3013
ltoes -11.9838
632
root -0.96058 18.111 4.49358 0.863648 -1.59418 -1.92977
lowerback 21.9147 1.10704 0.6565
upperback 8.02781 1.64257 1.64006
thorax -3.51454 0.788927 0.982666
lowerneck -27.2634 0.127122 -0.786999
upperneck 3.48276 0.448004 -0.155859
head 5.22616 0.192661 0.124035
rclavicle -3.57812e-015 5.1684e-015
rhumerus 40.8783 11.1906 -63.9215
rradius 37.0875
rwrist 1.10505
rhand -2.94722 -34.1583
rfingers 7.12502
rthumb 22.7646 -62.8351
lclavicle -3.57812e-015 5.1684e-015
lhumerus 44.2308 -9.58932 86.2159
lradius 32.8217
lwrist 2.58782
lhand -1.02746 -5.11439
lfingers 7.12502
lthumb 24.6059 23.3241
rfemur 14.4655 -3.24317 17.161
rtibia -23.0291
rfoot -2.23623 -21.446
rtoes 2.19365
lfemur 14.5591 -1.17011 -13.7057
ltibia -25.7304
lfoot 10.3432 13.3636
ltoes -11.892
633
root -0.963395 18.1088 4.52642 0.38408 -1.55177 -1.93548
lowerback 21.6724 1.09299 0.656591
upperback 7.86419 1.62638 1.65393
thorax -3.56955 0.78169 1.00318
lowerneck -27.5808 0.110025 -0.71334
upperneck 3.44831 0.412608 -0.235998
head 5.25872 0.169616 0.0823394
rclavicle -3.77691e-015 1.59028e-015
rhumerus 40.9124 11.1392 -64.1279
rradius 36.7789
rwrist 0.0236679
rhand -1.65586 -34.9983
rfingers 7.12502
rthumb 24.0034 -63.5175
lclavicle -3.77691e-015 1.59028e-015
lhumerus 44.0194 -9.27784 86.7451
lradius 32.7087
lwrist 4.5786
lhand 0.307286 -3.9708
lfingers 7.12502
lthumb 25.8847 24.2873
rfemur 15.0134 -3.22666 17.1406
rtibia -22.7722
rfoot -2.57412 -21.2921
rtoes 1.84555
lfemur 15.1045 -1.32048 -13.7186
ltibia -25.5011
lfoot 9.98301 13.3538
ltoes -12.0589
634
root -0.967661 18.1004 4.56409 -0.0915145 -1.5413 -1.94957
lowerback 21.3277 1.08738 0.643384
upperback 7.66839 1.61871 1.68819
thorax -3.60783 0.778425 1.05213
lowerneck -27.8377 0.0919396 -0.63776
upperneck 3.47488 0.380335 -0.36707
head 5.30295 0.143372 0.0238153
rclavicle -2.34566e-014 -5.96354e-015
rhumerus 40.7496 11.4012 -63.9353
rradius 36.7301
rwrist -1.51429
rhand -0.32352 -35.7474
rfingers 7.12502
rthumb 25.2805 -64.0923
lclavicle -2.34566e-014 -5.96354e-015
lhumerus 43.5838 -9.05128 87.0632
lradius 32.8046
lwrist 6.20042
lhand 1.46518 -3.12264
lfingers 7.12502
lthumb 26.993 24.9688
rfemur 15.5864 -3.18997 17.1311
rtibia -22.5407
rfoot -2.95522 -21.1412
rtoes 1.69668
lfemur 15.6915 -1.47967 -13.7143
ltibia -25.2995
lfoot 9.57889 13.3524
ltoes -12.5319
635
root -0.971858 18.091 4.60372 -0.575605 -1.51012 -1.94701
lowerback 20.9163 1.06312 0.616511
upperback 7.46815 1.58321 1.71758
thorax -3.61567 0.761641 1.11104
lowerneck -28.1728 0.0531385 -0.739882
upperneck 3.64053 0.357846 -0.282136
head 5.40242 0.136708 0.0652332
rclavicle -9.64106e-015 -6.36111e-015
rhumerus 40.5445 11.9247 -63.4636
rradius 36.7865
rwrist -3.443
rhand 0.723727 -36.3925
rfingers 7.12502
rthumb 26.2834 -64.5918
lclavicle -9.64106e-015 -6.36111e-015
lhumerus 43.0439 -9.03486 86.8893
lradius 33.0482
lwrist 8.10354
lhand 2.48624 -2.19085
lfingers 7.12502
lthumb 27.9695 25.7455
rfemur 16.1888 -3.19139 17.0941
rtibia -22.3419
rfoot -3.36634 -20.9737
rtoes 1.96608
lfemur 16.3019 -1.73656 -13.7276
ltibia -25.127
lfoot 9.18758 13.4428
ltoes -12.8802
